<?xml version="1.0" encoding="utf-8"?>
<!-- Generator: Adobe Illustrator 25.1.0, SVG Export Plug-In . SVG Version: 6.00 Build 0)  -->
<svg version="1.1" id="Layer_1" xmlns="http://www.w3.org/2000/svg" xmlns:xlink="http://www.w3.org/1999/xlink" x="0px" y="0px"
	 viewBox="0 0 658.91 268.56" style="enable-background:new 0 0 658.91 268.56;" xml:space="preserve">
<style type="text/css">
	.st0{fill:#1D1D1B;}
</style>
<g>
	<g>
		<path class="st0" d="M96.77,86.76c-5.22,7.64-10.61,15.15-16.18,22.55c-2.78,3.7-5.6,7.37-8.5,10.99
			c-2.89,3.62-5.81,7.22-8.86,10.73c-6.12,7-12.28,13.97-20.03,19.77c-0.49,0.36-0.98,0.71-1.52,1.04
			c-0.52,0.34-1.03,0.68-1.61,0.97c-0.56,0.31-1.12,0.62-1.76,0.87c-0.31,0.13-0.61,0.27-0.94,0.38l-1.04,0.29
			c-0.33,0.11-0.74,0.15-1.14,0.19c-0.41,0.03-0.77,0.1-1.24,0.05c-0.89-0.06-1.82-0.33-2.59-0.78c-1.56-0.92-2.48-2.24-3.13-3.48
			c-1.26-2.52-1.7-5.01-1.93-7.47c-0.22-2.46-0.19-4.89,0.02-7.3c0.2-2.41,0.63-4.79,1.23-7.14c0.62-2.34,1.41-4.67,2.61-6.88
			c0.61-1.1,1.32-2.18,2.21-3.17c0.9-0.98,2-1.91,3.4-2.44c1.38-0.56,3.02-0.58,4.37-0.16c1.37,0.41,2.52,1.13,3.51,1.93
			c1.01,0.83,1.78,1.64,2.63,2.48c0.83,0.83,1.63,1.68,2.42,2.54c1.58,1.72,3.1,3.47,4.6,5.24c3.03,3.5,5.98,7.05,9.09,10.44
			c3.13,3.35,6.35,6.66,10.07,9.23c1.86,1.27,3.85,2.35,5.95,2.9c2.1,0.58,4.3,0.4,6.22-0.48c1.92-0.88,3.6-2.44,4.86-4.18
			c1.27-1.79,2.26-3.83,3.12-5.91c1.7-4.19,2.88-8.61,3.81-13.07c1.81-8.95,2.54-18.1,2.5-27.2c-0.06-4.55-0.28-9.09-0.85-13.57
			c-0.56-4.48-1.39-8.91-2.69-13.16c-1.3-4.24-3.06-8.32-5.52-11.8c-2.43-3.49-5.65-6.28-9.42-7.74c-0.94-0.38-1.92-0.65-2.9-0.88
			c-0.5-0.11-1.01-0.17-1.51-0.27l-1.68-0.23c-2.26-0.31-4.51-0.56-6.76-0.75c-4.49-0.38-8.97-0.51-13.33-0.06
			c-4.35,0.44-8.6,1.41-12.42,3.3c-3.82,1.88-7.19,4.58-10.03,7.85c-2.84,3.28-5.11,7.11-6.96,11.17c-1.85,4.06-3.43,8.3-4.62,12.69
			c-2.5,8.73-3.96,17.82-5.1,26.93c-0.28,2.28-0.54,4.57-0.76,6.86c-0.22,2.29-0.48,4.58-0.63,6.88c-0.39,4.6-0.63,9.2-0.93,13.82
			l0,0.01c-0.01,0.14-0.13,0.24-0.27,0.23c-0.13-0.01-0.23-0.12-0.23-0.24l-0.17-6.94c-0.05-2.31,0-4.63-0.01-6.95
			c-0.02-2.32,0.07-4.63,0.13-6.95c0.03-2.32,0.19-4.64,0.33-6.95c0.11-2.32,0.32-4.63,0.53-6.95c0.18-2.32,0.51-4.63,0.79-6.94
			c0.26-2.32,0.71-4.61,1.06-6.92c0.21-1.15,0.46-2.3,0.69-3.45c0.24-1.15,0.46-2.3,0.77-3.43l0.87-3.42l1.03-3.39
			c0.32-1.14,0.74-2.25,1.15-3.36c0.41-1.12,0.8-2.24,1.31-3.32c1.87-4.39,4.21-8.66,7.32-12.47c3.08-3.81,7.01-7.06,11.46-9.32
			c4.45-2.28,9.34-3.45,14.15-4.01c4.84-0.55,9.63-0.35,14.34,0.05c2.35,0.2,4.69,0.47,7.01,0.8l1.75,0.24
			c0.63,0.12,1.27,0.22,1.9,0.37c1.26,0.31,2.5,0.69,3.7,1.19c2.4,0.99,4.62,2.39,6.56,4.07c1.94,1.68,3.58,3.63,4.98,5.68
			c2.8,4.13,4.63,8.69,5.95,13.29c1.32,4.61,2.13,9.31,2.58,14.01c0.46,4.7,0.61,9.41,0.46,14.1c-0.28,9.38-1.58,18.69-3.84,27.76
			c-1.14,4.53-2.55,9.02-4.5,13.32c-0.98,2.14-2.12,4.25-3.6,6.17c-0.36,0.48-0.77,0.95-1.19,1.4l-1.33,1.25
			c-0.49,0.37-0.98,0.74-1.49,1.09c-0.55,0.29-1.07,0.64-1.65,0.87c-2.3,1-4.97,1.12-7.32,0.46c-2.37-0.65-4.48-1.83-6.42-3.18
			c-3.86-2.73-7.2-6.01-10.39-9.37c-3.21-3.35-6.29-6.81-9.43-10.17c-1.58-1.67-3.18-3.32-4.81-4.93c-0.82-0.8-1.64-1.58-2.49-2.35
			c-0.84-0.74-1.72-1.55-2.53-2.15c-0.83-0.61-1.72-1.07-2.58-1.27c-0.86-0.2-1.67-0.14-2.41,0.21c-1.51,0.69-2.76,2.43-3.65,4.31
			c-1.79,3.84-2.57,8.33-2.84,12.7c-0.13,2.2-0.09,4.4,0.16,6.54c0.26,2.12,0.71,4.24,1.55,5.86c0.41,0.8,0.94,1.39,1.39,1.64
			c0.23,0.13,0.44,0.18,0.7,0.2c0.11,0.03,0.31-0.03,0.48-0.04c0.18-0.02,0.34-0.01,0.56-0.1c1.66-0.44,3.58-1.55,5.35-2.8
			c1.79-1.25,3.53-2.68,5.21-4.18c1.7-1.48,3.34-3.06,4.97-4.65c3.25-3.19,6.42-6.51,9.52-9.9c12.4-13.57,24.05-27.92,36.04-42
			c0.09-0.11,0.25-0.12,0.35-0.03C96.83,86.51,96.85,86.66,96.77,86.76z"/>
	</g>
	<g>
		<path class="st0" d="M47.39,134.85c-1.31,0.27-2.13,0.48-2.68,0.73c-0.57,0.23-0.75,0.53-1.34,0.53
			c-0.58-0.01-1.72,0.14-2.16,0.89c-0.46,0.71-0.19,1.71,0.46,2.14c0.34,0.21,0.65,0.3,0.94,0.34c0.26,0.05,0.49,0.09,0.73,0.13
			c0.51,0.06,1.12-0.02,1.81,0.09c0.68,0.13,1.51,0.27,2.41,0.51c0.46,0.11,0.94,0.22,1.45,0.4c0.51,0.14,1.04,0.32,1.63,0.61
			l0.01,0.01c0.16,0.08,0.23,0.28,0.15,0.44c0,0.01-0.01,0.02-0.02,0.03c-0.68,1.1-1.57,1.81-2.54,2.4c-1,0.52-2.1,0.93-3.35,0.93
			c-1.23,0.02-2.57-0.4-3.77-1.25c-0.59-0.43-1.18-0.94-1.53-1.64c-0.39-0.66-0.51-1.45-0.52-2.14c0.08-1.42,0.41-2.44,0.62-3.54
			c0.11-0.55,0.16-1.16,0.31-1.82c0.15-0.65,0.4-1.35,0.89-1.89c0.96-1.13,2.73-1.46,4.09-1.06c1.38,0.41,2.39,1.41,2.68,2.74
			c0.04,0.19-0.08,0.37-0.26,0.41c0,0,0,0,0,0L47.39,134.85z"/>
	</g>
	<g>
		<path class="st0" d="M137.51,108.84c0.44,1.71,0.32,3.35,0,4.85c-0.16,0.76-0.38,1.5-0.66,2.2c-0.25,0.72-0.6,1.39-1.08,2
			c-0.93,1.23-2.33,2.21-3.15,3.47c-0.83,1.25-1.32,2.68-1.62,4.22c-0.17,0.76-0.32,1.54-0.55,2.28c-0.21,0.75-0.54,1.43-0.83,2.13
			c-0.61,1.4-1.23,2.8-2.14,4.03c-0.44,0.62-0.93,1.21-1.47,1.78c-0.52,0.57-1.09,1.11-1.71,1.62c-0.6,0.51-1.25,0.99-1.97,1.4
			c-0.67,0.43-1.48,0.78-2.29,1.03c-0.15,0.05-0.31-0.04-0.35-0.19c-0.02-0.05-0.02-0.1,0-0.15l0-0.01c0.84-3.2,1.89-5.82,3.31-8.37
			c0.72-1.25,1.64-2.39,2.56-3.54c0.86-1.18,1.9-2.28,3.05-3.32c1.13-1.06,2.06-2.25,2.58-3.64c0.55-1.38,0.48-3.06,0.81-4.52
			c0.34-1.45,1.13-2.69,1.91-3.92c0.85-1.22,1.75-2.38,3.12-3.49l0.01-0.01c0.12-0.1,0.31-0.08,0.41,0.04
			C137.48,108.77,137.5,108.8,137.51,108.84z"/>
	</g>
	<g>
		<path class="st0" d="M152.49,90.24c1.52-0.92,2.94-2.07,4.9-2.54c0.48-0.12,1.02-0.14,1.57-0.05c0.27,0.05,0.54,0.15,0.8,0.25
			c0.24,0.14,0.52,0.26,0.71,0.45c0.86,0.68,1.36,1.72,1.72,2.45c1.62,3.15,3.38,6.25,5.29,9.17c0.97,1.44,2,2.86,3.13,3.95
			c0.28,0.28,0.56,0.5,0.83,0.69c0.26,0.19,0.52,0.28,0.59,0.28l0.45,0.13c0.5,0.21,0.77,0.58,0.85,0.75
			c0.12,0.19,0.22,0.58,0.22,0.61c0.06,0.48,0.01,0.65,0,0.85c-0.05,0.34-0.12,0.61-0.18,0.86c-0.14,0.5-0.28,0.95-0.43,1.39
			c-1.24,3.5-2.67,6.76-4.15,10.05c-1.48,3.27-2.98,6.53-4.53,9.76l-4.73,9.65c-3.18,6.42-6.51,12.75-9.96,19.02
			c-6.92,12.53-14.4,24.75-21.42,37.22c-3.51,6.23-7,12.47-10.45,18.74c-3.48,6.25-6.83,12.58-10.39,18.8
			c-1.76,3.12-3.54,6.24-5.39,9.32c-1.85,3.09-3.75,6.15-5.91,9.13c-0.54,0.75-1.11,1.49-1.73,2.23c-0.31,0.37-0.64,0.74-1.01,1.11
			c-0.38,0.37-0.77,0.75-1.39,1.15c-0.14,0.09-0.36,0.21-0.57,0.31c-0.19,0.08-0.25,0.1-0.38,0.15l-0.69,0.26
			c-0.46,0.17-0.92,0.35-1.43,0.47c-0.98,0.28-2.04,0.49-3.22,0.49l-0.9-0.03c-0.3-0.02-0.63-0.11-0.95-0.18
			c-0.63-0.1-1.28-0.44-1.89-0.75c-1.22-0.77-2.05-1.91-2.57-3c-0.97-2.22-1.08-4.25-1.17-6.14c-0.07-1.87-0.03-3.73,0.08-5.6
			l0.24-2.78l0.39-2.75c0.22-1.85,0.69-3.63,1.04-5.44c0.37-1.81,0.94-3.56,1.41-5.34c0.13-0.44,0.24-0.89,0.38-1.33l0.45-1.3
			l0.92-2.6c0.32-0.86,0.6-1.74,0.96-2.58l1.1-2.52l1.1-2.52l0.55-1.26c0.19-0.41,0.42-0.81,0.63-1.22
			c0.85-1.62,1.68-3.25,2.55-4.85c0.81-1.64,1.88-3.13,2.83-4.69c0.98-1.54,1.93-3.1,2.93-4.61l3.22-4.41l1.62-2.19
			c0.53-0.74,1.08-1.46,1.69-2.14l3.54-4.14l1.77-2.07c0.59-0.69,1.17-1.38,1.82-2.02l7.63-7.71c10.56-9.88,22.25-18.36,34.37-25.97
			c0.12-0.07,0.27-0.04,0.34,0.08c0.07,0.11,0.04,0.25-0.06,0.33l-0.01,0c-11.18,8.93-22.05,18.15-31.88,28.35l-7.08,7.89
			c-0.61,0.64-1.15,1.33-1.7,2.03l-1.64,2.07l-3.29,4.13c-0.57,0.68-1.07,1.4-1.56,2.13l-1.5,2.16l-3.03,4.31
			c-0.94,1.48-1.82,2.99-2.73,4.49c-0.88,1.51-1.88,2.96-2.62,4.54c-3.39,6.11-6.14,12.54-8.31,19.13c-0.47,1.67-1.05,3.31-1.43,5
			c-0.36,1.69-0.85,3.36-1.08,5.06l-0.42,2.55L83.03,242c-0.15,1.69-0.24,3.41-0.21,5.11c0.01,1.66,0.16,3.28,0.62,4.36
			c0.24,0.52,0.5,0.85,0.79,1.07c0.2,0.06,0.32,0.21,0.59,0.24c0.12,0.02,0.22,0.08,0.36,0.09l0.44,0.02
			c0.61,0.02,1.33-0.07,2.07-0.26c0.36-0.06,0.74-0.2,1.12-0.33l0.57-0.19l0.25-0.08c-0.01,0-0.03,0.03,0.02-0.01
			c0.13-0.07,0.42-0.29,0.68-0.54c0.27-0.26,0.55-0.54,0.83-0.84c0.56-0.6,1.11-1.26,1.65-1.93c4.29-5.48,8.26-11.47,12.15-17.43
			c7.74-11.99,15.02-24.31,21.76-36.91c6.77-12.59,12.81-25.57,19.15-38.36c3.18-6.4,6.41-12.76,9.7-19.1l4.88-9.53
			c1.62-3.17,3.26-6.34,4.83-9.53c1.55-3.19,3.18-6.39,4.5-9.57c0.16-0.39,0.31-0.79,0.43-1.14c0.06-0.18,0.1-0.35,0.13-0.44
			c0.01-0.01-0.01-0.07,0.03,0.19c0-0.03,0.06,0.31,0.16,0.45c0.06,0.1,0.28,0.45,0.73,0.64c0.6,0.17,0.25,0.05,0.27,0.07
			l-0.15-0.03c-0.8-0.19-1.34-0.56-1.8-0.9c-0.44-0.35-0.83-0.72-1.16-1.1c-1.33-1.51-2.28-3.08-3.2-4.68
			c-1.81-3.19-3.27-6.49-4.62-9.84c-0.35-0.89-0.59-1.55-1.09-2.06c-0.46-0.51-1.14-0.67-1.93-0.59c-1.6,0.18-3.23,1.08-4.85,1.81
			c-0.12,0.06-0.27,0.01-0.33-0.12C152.34,90.44,152.39,90.3,152.49,90.24z"/>
	</g>
	<g>
		<path class="st0" d="M180.37,88.23c-0.99-0.71-1.45-1.51-1.73-2.31c-0.24-0.8-0.41-1.61-0.02-2.37c0.38-0.76,1.27-1.45,1.51-2.18
			c0.26-0.74,0.13-1.52-0.19-2.38c-0.15-0.43-0.31-0.86-0.39-1.29c-0.08-0.43-0.06-0.85-0.04-1.28c0.05-0.86,0.12-1.76,0.64-2.66
			c0.28-0.46,0.59-0.9,1.21-1.41l0.22-0.18c0.1-0.07,0.2-0.13,0.3-0.19l0.31-0.17c0.11-0.06,0.27-0.12,0.4-0.17
			c0.14-0.05,0.28-0.09,0.42-0.12c0.16-0.03,0.34-0.05,0.51-0.06c0.34-0.03,0.67,0.04,0.98,0.14c0.33,0.1,0.53,0.24,0.73,0.41
			c0.22,0.17,0.33,0.33,0.43,0.48c0.25,0.32,0.29,0.61,0.37,0.91c0.09,0.57,0.01,1.1-0.2,1.64c-0.07,0.17-0.25,0.27-0.43,0.23
			l-0.02,0c-0.56-0.13-1-0.25-1.37-0.29c-0.18,0.02-0.35,0-0.41,0.11c-0.04,0.04-0.07,0.07-0.03,0.17c0.03,0.09,0.07,0.13,0.2,0.22
			c0.12,0.07,0.26,0.11,0.42,0.14c0.08,0.01,0.16,0,0.23,0c0.06,0.01,0.11,0.01,0.17,0c0.05,0,0.12-0.03,0.15-0.04
			c0.03,0.01,0.06,0.01,0.09,0.01c0.03,0,0.06,0,0.08-0.01c0.02,0,0.03,0.02,0.04,0.03c0.1,0.05,0.06,0.28,0,0.49
			c-0.13,0.46-0.53,0.99-0.89,1.58c-0.18,0.3-0.34,0.61-0.59,0.91c-0.24,0.3-0.56,0.6-0.84,0.91c-0.61,0.62-0.97,1.32-0.9,2.07
			c0.05,0.75,0.78,1.57,1.05,2.3c0.13,0.37,0.15,0.72,0.07,1.08c-0.06,0.35-0.17,0.7-0.32,1.05c-0.31,0.71-0.76,1.4-1.66,2.2
			l-0.01,0.01C180.72,88.33,180.52,88.33,180.37,88.23z"/>
	</g>
	<g>
		<path class="st0" d="M216.35,123.5c-5.23,8.61-10.57,17.44-18.11,24.62c-3.78,3.5-8.2,6.72-13.6,7.98
			c-1.34,0.33-2.73,0.45-4.12,0.49c-1.37-0.04-2.76-0.09-4.17-0.46c-1.4-0.35-2.82-0.92-4.08-1.88c-1.25-0.95-2.25-2.29-2.84-3.73
			c-1.18-2.92-0.95-5.92-0.37-8.6c0.62-2.71,1.65-5.24,3.04-7.6c0.7-1.18,1.48-2.32,2.41-3.4c0.46-0.54,0.97-1.06,1.55-1.56
			c0.27-0.25,0.62-0.48,0.93-0.72l0.77-0.53c2.04-1.45,4.17-2.94,6.36-4.32c4.4-2.75,9.13-5.29,14.58-6.42
			c2.71-0.54,5.65-0.65,8.51,0.09c2.87,0.7,5.49,2.31,7.53,4.31l0.03,0.02c0.06,0.06,0.12,0.13,0.17,0.2
			c0.74,0.99,1.53,2.22,1.7,3.88c0.08,0.81-0.01,1.66-0.25,2.4c-0.24,0.74-0.58,1.37-0.95,1.91c-0.74,1.08-1.54,1.89-2.31,2.64
			l-2.25,2.12c-2.88,2.68-5.12,5.56-5.77,9.08c-0.3,1.71-0.39,3.72,0.07,5.13c0.2,0.76,0.59,1.27,1.06,1.68
			c0.47,0.4,1.12,0.67,1.92,0.73c1.57,0.21,3.46-0.28,5.23-0.92c1.79-0.65,3.56-1.54,5.26-2.55c3.43-1.98,6.65-4.43,9.75-7
			c3.09-2.59,6.07-5.35,8.88-8.27c2.82-2.91,5.55-5.92,8.16-9.03c2.59-3.13,5.1-6.33,7.54-9.58c0.25-0.34,0.72-0.41,1.06-0.16
			c0.32,0.24,0.4,0.69,0.18,1.03c-4.37,6.61-8.51,13.38-12.28,20.34c-1.88,3.48-3.7,7-5.28,10.6c-0.79,1.8-1.54,3.62-2.16,5.45
			c-0.61,1.82-1.17,3.73-1.21,5.43c-0.01,0.42,0.04,0.8,0.13,1.07c0.1,0.27,0.18,0.34,0.28,0.38c0.23,0.14,1.12,0.04,1.91-0.28
			c0.82-0.3,1.64-0.73,2.47-1.21l2.56-1.5c3.41-2.01,6.77-4.08,10.06-6.25c3.27-2.18,6.48-4.44,9.44-6.93
			c2.95-2.47,5.72-5.16,7.64-8.24c0.59-0.95,1.84-1.24,2.8-0.65c0.83,0.52,1.16,1.53,0.83,2.42l-0.02,0.05
			c-1.72,4.7-3.62,9.33-5.35,13.91c-0.84,2.27-1.73,4.62-2.12,6.68c-0.11,0.5-0.12,0.98-0.1,1.19c0.01,0.02,0,0.13,0.01,0.06
			c-0.01-0.04-0.02-0.02-0.08-0.17c-0.03-0.05-0.07-0.1-0.12-0.14c-0.04-0.06-0.1-0.13-0.17-0.17c-0.17-0.08-0.22-0.14-0.33-0.16
			c-0.14-0.04-0.13-0.01,0.02-0.04c0.08,0.01,0.33-0.09,0.5-0.12l0.67-0.26l0.72-0.34c0.99-0.5,1.99-1.11,2.99-1.75l3.06-2.02
			c2.03-1.37,4.01-2.78,5.93-4.25c1.91-1.47,3.75-3.01,5.37-4.65c0.78-0.82,1.56-1.66,2.15-2.52c0.6-0.84,1.06-1.72,1.2-2.41
			l0.06-0.25c0-0.08,0-0.15,0.01-0.22l0.01-0.11c0-0.04,0,0.09,0.01,0.13l0.01,0.09c0,0.03,0.03,0.17,0.05,0.25
			c0.03,0.09,0.06,0.18,0.1,0.27c0.02,0.05,0.17,0.38,0.31,0.53c0.18,0.21,0.27,0.3,0.57,0.52c0.27,0.19,0.62,0.32,0.94,0.37
			c0.27,0.04,0.42,0.04,0.64,0.02c0.19-0.02,0.45-0.1,0.48-0.1c0.14-0.04,0.34-0.14,0.4-0.18c0.05-0.03,0.09-0.06,0.14-0.09
			l0.04-0.03c0.03-0.03,0.01,0-0.01,0.01c-0.03,0.03-0.09,0.1-0.16,0.19c-0.13,0.16-0.28,0.37-0.43,0.58
			c-0.6,0.88-1.19,1.91-1.74,2.94c-1.09,2.07-2.04,4.26-2.81,6.44c-0.38,1.09-0.7,2.18-0.92,3.24c-0.22,1.05-0.33,2.1-0.25,2.89
			c0.03,0.39,0.13,0.68,0.2,0.79c0.07,0.13,0.05,0.07,0.11,0.12c0.11,0.09,1.02,0.18,1.89-0.08c1.76-0.43,3.66-1.57,5.34-3.02
			c1.7-1.44,3.3-3.14,4.74-4.97c2.88-3.68,5.26-7.86,7.01-12.23c0.87-2.19,1.58-4.43,2.04-6.68c0.45-2.24,0.71-4.52,0.47-6.63
			c-0.19-2.07-0.98-4.21-2.01-4.85c-0.53-0.4-1.3-0.63-2.24-0.63c-0.22-0.02-0.46-0.02-0.71,0.02c-0.25,0.03-0.49,0.03-0.74,0.07
			c-0.51,0.11-1.02,0.17-1.55,0.35c-2.09,0.59-4.2,1.61-6.21,2.8c-2.01,1.21-3.93,2.62-5.73,4.17c-3.58,3.1-6.81,6.76-8.87,10.84
			c-0.47,1.03-0.92,2.07-1.14,3.12c-0.27,1.05-0.34,2.09-0.2,3.07c0.05,0.24,0.07,0.49,0.13,0.72l0.24,0.68
			c0.05,0.23,0.22,0.45,0.33,0.68c0.12,0.23,0.24,0.47,0.4,0.67c0.56,0.88,1.36,1.6,2.24,2.24c1.79,1.28,4.04,2.08,6.35,2.67
			c2.32,0.6,4.74,0.97,7.18,1.31c4.88,0.68,9.86,1.18,14.78,2.22c2.46,0.52,4.9,1.19,7.24,2.15c2.33,0.97,4.55,2.24,6.45,3.9
			c0.1,0.09,0.11,0.25,0.02,0.35c-0.09,0.1-0.24,0.11-0.34,0.03c-1.96-1.48-4.18-2.54-6.49-3.32c-2.31-0.79-4.71-1.3-7.14-1.67
			c-4.86-0.74-9.8-0.92-14.78-1.36c-2.49-0.24-5-0.51-7.51-1.04c-2.5-0.54-5.07-1.28-7.41-2.8c-1.15-0.77-2.27-1.69-3.11-2.87
			c-0.24-0.27-0.41-0.59-0.6-0.9c-0.18-0.32-0.39-0.6-0.52-0.97l-0.43-1.06c-0.1-0.36-0.17-0.73-0.26-1.1
			c-0.27-1.47-0.22-2.96,0.07-4.32c0.24-1.39,0.73-2.67,1.24-3.92c1.07-2.47,2.53-4.67,4.13-6.72c1.61-2.05,3.38-3.94,5.29-5.68
			c1.91-1.75,3.95-3.35,6.16-4.77c2.21-1.42,4.57-2.66,7.24-3.48c1.33-0.41,2.76-0.7,4.32-0.69c0.4,0.02,0.78-0.01,1.18,0.06
			l1.22,0.22c0.82,0.25,1.65,0.55,2.4,1.08c1.5,0.97,2.59,2.62,3.1,3.94c0.56,1.39,0.96,2.83,1.1,4.23c0.37,2.83,0.1,5.55-0.38,8.17
			c-0.5,2.62-1.27,5.14-2.2,7.57c-1.89,4.86-4.41,9.43-7.59,13.61c-1.61,2.08-3.38,4.07-5.47,5.83c-2.08,1.74-4.5,3.35-7.57,4.12
			c-0.78,0.17-1.55,0.32-2.45,0.31c-0.88-0.01-1.9-0.11-2.96-0.62c-1.06-0.49-2.02-1.44-2.51-2.42c-0.52-0.98-0.71-1.93-0.8-2.77
			c-0.15-1.69,0.06-3.13,0.34-4.51c0.29-1.37,0.67-2.66,1.11-3.91c0.87-2.51,1.97-4.86,3.22-7.16c0.63-1.15,1.29-2.28,2.11-3.43
			c0.21-0.29,0.42-0.58,0.69-0.9c0.13-0.16,0.27-0.32,0.46-0.51c0.1-0.1,0.18-0.18,0.33-0.31c0.07-0.06,0.12-0.1,0.22-0.18
			c0.11-0.08,0.22-0.15,0.33-0.22c0.12-0.08,0.4-0.21,0.61-0.28c0.06-0.03,0.36-0.11,0.59-0.13c0.26-0.02,0.46-0.03,0.76,0.02
			c0.36,0.06,0.73,0.21,1.04,0.41c0.34,0.22,0.45,0.37,0.65,0.6c0.16,0.19,0.35,0.54,0.37,0.63c0.05,0.12,0.09,0.25,0.13,0.38
			c0.03,0.12,0.07,0.29,0.08,0.36l0.02,0.21c0.01,0.12,0.02,0.33,0.01,0.36l-0.02,0.35l-0.06,0.7c-0.04,0.22-0.09,0.44-0.14,0.66
			c-0.42,1.73-1.24,3.05-2.08,4.22c-0.84,1.18-1.78,2.15-2.72,3.11c-1.9,1.86-3.91,3.48-5.95,5.01c-2.05,1.52-4.13,2.95-6.24,4.33
			l-3.18,2.04c-1.1,0.68-2.23,1.34-3.46,1.95l-0.97,0.44c-0.35,0.14-0.7,0.27-1.07,0.39c-0.43,0.11-0.77,0.24-1.31,0.29
			c-0.47,0.07-1.09,0.1-1.83-0.09c-0.4-0.13-0.77-0.24-1.16-0.55c-0.19-0.14-0.37-0.29-0.53-0.46c-0.14-0.17-0.26-0.34-0.38-0.52
			c-0.45-0.73-0.55-1.37-0.6-1.87c-0.08-1.03,0.04-1.8,0.18-2.51c0.29-1.43,0.7-2.66,1.12-3.89c0.42-1.22,0.89-2.4,1.36-3.57
			c1.9-4.65,3.89-9.16,5.7-13.74l3.61,1.81c-2.4,3.63-5.52,6.44-8.7,8.98c-3.21,2.53-6.61,4.7-10.03,6.8
			c-3.43,2.08-6.92,4.04-10.43,5.93l-2.64,1.41c-0.91,0.48-1.87,0.95-2.93,1.3c-0.53,0.18-1.1,0.32-1.73,0.39
			c-0.62,0.07-1.38,0.05-2.17-0.33c-0.81-0.39-1.33-1.22-1.51-1.89c-0.2-0.69-0.23-1.31-0.2-1.88c0.15-2.28,0.85-4.2,1.55-6.12
			c0.72-1.9,1.55-3.74,2.42-5.54c1.76-3.61,3.64-7.13,5.61-10.6c3.96-6.92,8.11-13.71,12.53-20.35l1.24,0.87
			c-4.85,6.59-9.98,12.98-15.53,19.03c-5.58,6-11.47,11.83-18.51,16.41c-1.76,1.14-3.61,2.18-5.62,3.01c-1,0.42-2.05,0.77-3.15,1.04
			c-0.55,0.14-1.13,0.21-1.7,0.3c-0.61,0.02-1.18,0.11-1.82,0.03c-1.23-0.05-2.61-0.46-3.75-1.31c-1.13-0.84-1.98-2.07-2.36-3.27
			c-0.24-0.6-0.34-1.21-0.47-1.81c-0.06-0.58-0.17-1.2-0.17-1.75c-0.05-1.13,0-2.27,0.17-3.41c0.33-2.28,1.19-4.52,2.41-6.44
			c1.21-1.94,2.73-3.57,4.22-5.05c1.47-1.46,3.03-2.85,3.84-4.11c0.42-0.64,0.49-1.06,0.46-1.44c-0.02-0.39-0.32-0.99-0.8-1.61
			l0.2,0.22c-1.59-1.52-3.44-2.64-5.52-3.14c-2.07-0.52-4.32-0.48-6.57-0.06c-4.53,0.87-8.96,3.11-13.14,5.68
			c-2.11,1.29-4.14,2.71-6.27,4.14l-0.81,0.54c-0.19,0.15-0.39,0.25-0.58,0.43c-0.39,0.32-0.78,0.69-1.15,1.11
			c-0.74,0.82-1.43,1.76-2.04,2.75c-1.23,1.98-2.18,4.18-2.73,6.4c-0.56,2.21-0.66,4.53,0.01,6.37c1.18,3.76,6.76,4.72,11.15,3.86
			c4.59-0.87,8.86-3.56,12.61-6.75c3.77-3.21,7.17-6.94,10.31-10.87c3.17-3.93,5.96-8.13,9.05-12.2c0.08-0.11,0.24-0.13,0.35-0.05
			c0.1,0.08,0.13,0.22,0.06,0.33L216.35,123.5z"/>
	</g>
	<g>
		<path class="st0" d="M408.69,120.81c1.81-2.89,3.22-6.02,4.56-9.15c1.34-3.14,2.52-6.34,3.65-9.56c1.11-3.23,2.11-6.48,3.03-9.75
			c0.9-3.27,1.67-6.58,2.31-9.88c0.63-3.3,1.06-6.63,1.14-9.9c0.07-1.64-0.01-3.24-0.18-4.8c-0.23-1.53-0.57-3.03-1.17-4.26
			c-0.62-1.22-1.46-2.09-2.5-2.62c-1.05-0.53-2.38-0.72-3.78-0.6c-2.82,0.39-5.82,1.66-8.53,3.43c-2.75,1.74-5.34,3.84-7.77,6.13
			c-2.45,2.28-4.73,4.78-6.85,7.42c-2.13,2.63-4.11,5.4-5.91,8.29c-1.77,2.91-3.45,5.88-4.87,8.98
			c-5.76,12.35-8.62,26.14-7.78,39.66c0.06,1.69,0.28,3.36,0.44,5.04c0.26,1.65,0.49,3.31,0.89,4.92c0.76,3.2,1.85,6.32,3.58,8.83
			c0.9,1.21,1.92,2.26,3.08,3.07c1.19,0.75,2.51,1.24,3.91,1.45c1.4,0.23,2.9,0.14,4.4-0.12c0.75-0.1,1.5-0.34,2.25-0.52
			c0.74-0.26,1.49-0.47,2.23-0.79c2.96-1.17,5.77-2.87,8.44-4.77c2.65-1.93,5.18-4.08,7.43-6.44c4.66-4.95,9.4-9.95,13.97-15.02
			c4.65-5.01,9.11-10.19,13.53-15.4c4.42-5.21,8.64-10.58,12.73-16.03c4.11-5.45,7.89-11.13,11.53-16.91
			c1.68-2.96,3.53-5.85,5.04-8.92c1.67-3,2.96-6.16,4.43-9.27l0.01-0.02c0.06-0.12,0.21-0.18,0.33-0.12
			c0.11,0.05,0.17,0.18,0.13,0.3c-1.05,3.28-2.05,6.61-3.44,9.78c-1.23,3.25-2.77,6.35-4.27,9.48c-0.79,1.54-1.63,3.06-2.45,4.59
			l-1.25,2.28l-1.33,2.23c-0.89,1.48-1.76,2.99-2.68,4.46l-2.83,4.36c-7.64,11.58-16.36,22.39-25.52,32.74
			c-2.3,2.58-4.66,5.11-7.02,7.63c-2.38,2.53-4.71,4.99-7.19,7.48c-5.15,5.03-10.99,9.32-17.91,11.96
			c-0.85,0.34-1.77,0.59-2.65,0.86c-0.92,0.21-1.83,0.45-2.79,0.57c-1.89,0.28-3.88,0.36-5.86-0.04c-1.98-0.37-3.92-1.16-5.59-2.33
			c-1.65-1.21-2.95-2.73-4.01-4.34c-2.02-3.29-2.99-6.86-3.58-10.38c-0.31-1.76-0.45-3.53-0.6-5.29c-0.05-1.76-0.17-3.51-0.11-5.26
			c-0.03-3.49,0.27-6.98,0.65-10.44c0.27-1.72,0.46-3.45,0.81-5.15l0.46-2.56l0.56-2.54c0.17-0.85,0.4-1.69,0.62-2.53l0.66-2.52
			c0.5-1.66,0.96-3.33,1.54-4.96c1.09-3.29,2.33-6.53,3.73-9.7c2.77-6.35,6.09-12.49,10.05-18.25c3.97-5.74,8.62-11.15,14.53-15.37
			c2.97-2.05,6.33-3.86,10.36-4.39c2.02-0.2,4.23,0,6.26,1.01c2.06,0.98,3.59,2.84,4.47,4.7c1.68,3.8,1.76,7.57,1.61,11.16
			c-0.2,3.6-0.82,7.1-1.59,10.52c-0.77,3.43-1.78,6.78-2.89,10.08c-1.11,3.3-2.37,6.54-3.76,9.73c-1.37,3.19-2.89,6.31-4.55,9.36
			c-1.69,3.03-3.48,6.03-5.73,8.69c-0.09,0.11-0.25,0.12-0.35,0.03C408.64,121.06,408.62,120.92,408.69,120.81L408.69,120.81z"/>
	</g>
	<g>
		<path class="st0" d="M454.11,14.68c-0.87,0.07-1.71,0.31-2.55,0.59c-0.84,0.25-1.66,0.59-2.47,0.9c-1.62,0.67-3.21,1.38-4.77,2.15
			c-3.12,1.52-6,3.36-8.86,5.19c-2.86,1.82-5.85,3.86-7.75,6.87c-1.9,2.96-2.72,6.57-2.44,10.03c0.06,0.87,0.13,1.72,0.3,2.57
			c0.12,0.85,0.32,1.69,0.5,2.52c0.16,0.83,0.41,1.65,0.62,2.47c0.1,0.43,0.23,0.78,0.35,1.12c0.1,0.36,0.28,0.67,0.43,0.99
			c0.63,1.27,1.58,2.17,2.69,2.83c1.16,0.6,2.5,1.03,4.01,1.19c1.5,0.18,3.1,0.16,4.73,0.01c1.63-0.18,3.29-0.51,4.93-0.94
			c0.82-0.23,1.64-0.47,2.46-0.75c0.8-0.3,1.62-0.6,2.41-0.95c1.6-0.7,3.14-1.52,4.6-2.62l0.01-0.01c0.11-0.08,0.27-0.06,0.36,0.05
			c0.06,0.08,0.07,0.18,0.03,0.27c-0.84,1.72-2.15,3.21-3.61,4.46c-1.45,1.28-3.09,2.34-4.82,3.21c-1.73,0.88-3.58,1.57-5.52,2.04
			c-1.94,0.48-3.99,0.69-6.11,0.54c-2.1-0.16-4.33-0.79-6.27-2.09c-1.92-1.31-3.48-3.26-4.23-5.35c-0.18-0.52-0.39-1.04-0.49-1.57
			l-0.19-0.79c-0.06-0.26-0.07-0.49-0.1-0.73c-0.1-0.97-0.3-1.92-0.27-2.89l-0.03-1.45c0-0.48,0.07-0.97,0.1-1.45
			c0.05-0.96,0.21-1.92,0.38-2.87c0.13-0.95,0.45-1.87,0.64-2.79l0.43-1.36c0.12-0.46,0.29-0.9,0.45-1.34
			c0.6-1.79,1.41-3.47,2.25-5.15c1.71-3.3,3.72-6.7,6.57-9.35c1.41-1.33,3.02-2.41,4.72-3.31c1.69-0.91,3.46-1.66,5.28-2.22
			c1.82-0.56,3.69-0.97,5.6-1.13c0.95-0.1,1.92-0.1,2.88-0.04c0.96,0.07,1.95,0.21,2.87,0.67c0.13,0.06,0.18,0.22,0.11,0.34
			c-0.04,0.08-0.12,0.13-0.21,0.14L454.11,14.68z"/>
	</g>
	<g>
		<path class="st0" d="M428.19,150.17c2.21-3.35,4.32-6.74,6.08-10.23c0.87-1.75,1.64-3.52,2.22-5.3c0.58-1.77,0.87-3.59,0.7-5.1
			c-0.28-2.94-3.37-4.33-6.5-3.54c-3.15,0.79-6.15,3.04-8.36,5.87c-2.26,2.82-3.82,6.32-4.56,10.05c-0.36,1.86-0.56,3.85-0.41,5.65
			c0.2,1.8,0.89,3.55,2.27,4.71c1.36,1.17,3.21,1.79,5.11,1.96c1.9,0.19,3.86,0.09,5.78-0.24c3.86-0.62,7.61-1.96,11.19-3.56
			c1.79-0.81,3.54-1.7,5.2-2.67c0.83-0.49,1.63-1,2.32-1.54c0.81-0.6,1.59-1.19,2.36-1.79c3.06-2.39,5.95-4.94,8.08-7.9
			c2.13-2.93,3.35-6.25,2.91-9.44c-0.37-3.2-2.25-6.29-4.68-9c-2.39-2.74-5.29-4.88-8.52-5.64c-3.22-0.76-6.76-0.03-9.96,1.76
			c-3.22,1.77-6.1,4.39-8.66,7.32c-2.54,2.96-4.75,6.26-6.72,9.75c-0.07,0.12-0.22,0.16-0.34,0.1c-0.11-0.06-0.15-0.18-0.12-0.29
			c1.19-3.86,2.9-7.61,5.13-11.08c1.12-1.73,2.38-3.4,3.82-4.94c1.43-1.54,3.01-2.99,4.82-4.2c1.8-1.22,3.81-2.24,6.03-2.82
			c2.21-0.58,4.61-0.72,6.93-0.34c2.33,0.36,4.52,1.31,6.45,2.51c1.95,1.19,3.61,2.7,5.09,4.3c1.47,1.61,2.82,3.37,3.9,5.39
			c1.07,2.01,1.84,4.3,2.03,6.69c0.2,2.38-0.14,4.83-0.97,7c-0.82,2.18-2.01,4.13-3.38,5.83c-2.74,3.43-6.08,6.06-9.52,8.31
			c-0.86,0.56-1.73,1.1-2.58,1.62c-0.96,0.59-1.92,1.04-2.87,1.47c-1.9,0.85-3.83,1.56-5.77,2.19c-3.89,1.26-7.87,2.21-11.95,2.69
			c-2.04,0.2-4.11,0.32-6.19,0.07c-2.06-0.24-4.2-0.86-5.96-2.23c-1.8-1.35-2.85-3.51-3.26-5.63c-0.43-2.16-0.41-4.21-0.31-6.32
			c0.26-4.19,1.46-8.48,3.92-12.15c2.44-3.62,6.08-6.76,10.79-7.76c2.32-0.48,5.02-0.34,7.34,1c1.13,0.66,2.14,1.61,2.85,2.79
			c0.71,1.18,1.04,2.51,1.11,3.75c0.12,2.49-0.59,4.66-1.42,6.61c-0.84,1.97-1.91,3.77-3.07,5.47c-2.32,3.4-5.02,6.46-7.99,9.2
			c-0.1,0.09-0.26,0.09-0.36-0.01C428.13,150.4,428.13,150.27,428.19,150.17z"/>
	</g>
	<g>
		<path class="st0" d="M503.18,127.06c-0.37-1.52-1.01-3-1.94-4.17c-0.46-0.57-1-1.08-1.57-1.32c-0.58-0.24-1.05-0.14-1.51,0.17
			c-0.47,0.32-0.86,0.93-1.21,1.53c-0.41,0.74-0.89,1.46-1.35,2.13c-0.93,1.35-1.91,2.63-2.86,3.92c-1.91,2.58-3.78,5.16-5.55,7.78
			c-1.76,2.63-3.4,5.32-4.8,8.07c-1.4,2.75-2.51,5.62-2.97,8.45c-0.23,1.41-0.27,2.8-0.06,4.1c0.09,0.65,0.28,1.27,0.51,1.86
			c0.13,0.27,0.25,0.62,0.38,0.84c0.13,0.24,0.27,0.44,0.41,0.59c0.29,0.31,0.53,0.45,0.86,0.53c0.34,0.07,0.81,0.05,1.37-0.07
			c1.12-0.25,2.42-0.91,3.64-1.69c2.45-1.62,4.85-3.64,7.1-5.8c4.55-4.32,8.81-9.08,12.85-14.01c4.03-4.95,7.82-10.12,11.06-15.61
			c0.79-1.37,1.52-2.79,2.27-4.21c0.75-1.42,1.5-2.84,2.21-4.28c1.43-2.87,2.89-5.73,4.09-8.67c0.6-1.46,1.17-2.95,1.55-4.42
			c0.18-0.73,0.3-1.48,0.27-2.11c-0.01-0.32-0.08-0.57-0.17-0.72c-0.09-0.14-0.15-0.18-0.32-0.24c-0.17-0.05-0.52-0.06-0.63-0.02
			c-0.09,0.02-0.22,0.09-0.32,0.11l-0.38,0.22c-0.53,0.36-1.05,0.87-1.54,1.41c-0.98,1.12-1.84,2.4-2.62,3.73
			c-3.07,5.38-5.04,11.48-5.87,17.52c-0.36,3.02-0.44,6.07,0.13,8.9c0.28,1.42,0.68,2.8,1.29,3.91c0.61,1.13,1.42,1.99,2.39,2.56
			c1.93,1.17,4.79,1.09,7.58,0.41c2.82-0.68,5.64-1.89,8.36-3.29c1.36-0.71,2.7-1.48,4.04-2.28l0.98-0.59
			c0.28-0.18,0.56-0.37,0.84-0.57c0.56-0.41,1.11-0.86,1.65-1.35c1.07-0.97,2.08-2.05,2.98-3.19c0.89-1.11,1.7-2.39,2.12-3.39
			c0.11-0.24,0.16-0.46,0.17-0.52c0.01-0.03,0-0.01,0,0.01c0.01,0,0,0.06,0.02,0.13c0.02,0.11,0.1,0.43,0.34,0.69
			c0.09,0.15,0.27,0.26,0.38,0.34c0.06,0.04,0.13,0.08,0.2,0.1c0.08,0.04,0.19,0.1,0.3,0.12c0.11,0.03,0.22,0.05,0.33,0.05
			c0.04,0.01,0.06,0.01,0.09,0.01c0.04,0.01,0.16-0.03,0.11-0.01c-0.03,0.01-0.07,0-0.19,0.05c-0.09,0.02-0.22,0.07-0.35,0.13
			c-1.1,0.47-2.41,1.3-3.61,2.17c-2.43,1.77-4.73,3.84-6.81,6.05c-2.06,2.22-3.92,4.65-5.14,7.23c-0.61,1.28-1.04,2.6-1.15,3.85
			c-0.04,0.3-0.04,0.65-0.04,1.01c-0.01,0.36,0.03,0.71,0.04,1.06c0.07,0.69,0.15,1.39,0.32,2.05c0.64,2.65,2.29,4.78,4.92,5.65
			c2.59,0.93,5.73,0.77,8.74,0.24c6.11-1.15,12.04-3.78,17.79-6.58c0.12-0.06,0.27-0.01,0.34,0.11c0.06,0.11,0.02,0.25-0.08,0.32
			c-2.67,1.8-5.45,3.47-8.34,4.95c-2.89,1.49-5.91,2.81-9.12,3.69c-3.2,0.84-6.7,1.41-10.3,0.43c-0.9-0.22-1.77-0.62-2.61-1.07
			c-0.82-0.5-1.62-1.06-2.29-1.77c-1.37-1.39-2.29-3.14-2.82-4.9c-0.29-0.89-0.44-1.78-0.58-2.68c-0.09-0.92-0.19-1.73-0.15-2.73
			c0.06-1.96,0.57-3.77,1.26-5.42c1.41-3.3,3.42-6.09,5.61-8.67c2.21-2.57,4.66-4.87,7.38-6.94c1.39-1.03,2.76-2.01,4.59-2.85
			c0.23-0.1,0.48-0.21,0.77-0.3c0.25-0.1,0.61-0.19,0.97-0.26c0.14-0.04,0.46-0.06,0.7-0.07c0.13,0,0.25-0.01,0.39,0
			c0.21,0.02,0.42,0.06,0.62,0.12c0.2,0.05,0.42,0.12,0.58,0.2c0.15,0.08,0.31,0.16,0.45,0.26c0.29,0.17,0.58,0.46,0.83,0.74
			c0.47,0.59,0.72,1.28,0.79,1.79c0.04,0.27,0.06,0.53,0.06,0.73c0,0.22-0.01,0.44-0.04,0.61c-0.09,0.74-0.27,1.3-0.46,1.8
			c-0.38,1.01-0.85,1.82-1.34,2.6c-0.49,0.77-1.02,1.49-1.56,2.19c-1.1,1.38-2.29,2.65-3.6,3.83c-0.66,0.59-1.35,1.16-2.09,1.69
			c-0.37,0.27-0.75,0.53-1.15,0.78l-1.08,0.66c-1.42,0.85-2.9,1.63-4.4,2.37c-3.01,1.46-6.17,2.76-9.62,3.51
			c-1.72,0.37-3.54,0.58-5.45,0.46c-1.89-0.11-3.92-0.59-5.69-1.73c-1.77-1.1-3.15-2.76-4-4.49c-0.87-1.74-1.3-3.51-1.58-5.25
			c-0.54-3.5-0.35-6.97,0.26-10.28c0.61-3.32,1.59-6.52,2.87-9.58c1.26-3.07,2.79-6.01,4.65-8.78c0.93-1.38,1.95-2.72,3.16-3.96
			c0.63-0.61,1.29-1.2,2.13-1.69l0.69-0.33c0.28-0.08,0.52-0.18,0.83-0.22c0.69-0.08,1.15-0.01,1.75,0.2
			c0.59,0.22,1.17,0.73,1.43,1.32c0.27,0.58,0.33,1.14,0.32,1.62c-0.01,0.98-0.24,1.82-0.47,2.64c-0.48,1.62-1.12,3.13-1.79,4.61
			c-1.37,2.95-2.81,5.82-4.29,8.68c-1.51,2.85-2.86,5.73-4.43,8.59c-1.56,2.84-3.22,5.62-4.95,8.35c-1.7,2.75-3.5,5.44-5.32,8.11
			c-3.68,5.33-7.58,10.53-12.12,15.31c-2.31,2.35-4.69,4.68-7.62,6.58c-1.47,0.94-3.05,1.85-5.06,2.34c-1,0.24-2.17,0.34-3.4,0.04
			c-1.24-0.28-2.41-1.07-3.16-1.97c-0.39-0.45-0.69-0.92-0.94-1.39c-0.26-0.48-0.4-0.9-0.6-1.36c-0.34-0.91-0.59-1.85-0.71-2.79
			c-0.27-1.88-0.15-3.74,0.17-5.49c0.32-1.76,0.89-3.4,1.53-4.98c0.64-1.59,1.39-3.09,2.21-4.55c1.61-2.93,3.52-5.61,5.49-8.21
			c1.97-2.6,4.08-5.07,6.21-7.49l3.15-3.61c0.51-0.61,0.99-1.18,1.42-1.81c0.53-0.72,1.09-1.47,2.01-1.99
			c0.47-0.24,1-0.41,1.56-0.41c0.27-0.01,0.54,0.07,0.81,0.12c0.25,0.07,0.48,0.2,0.71,0.3c0.87,0.51,1.42,1.23,1.88,1.96
			c0.9,1.48,1.3,3.13,1.46,4.76c0.01,0.14-0.09,0.26-0.22,0.27C503.32,127.27,503.21,127.19,503.18,127.06L503.18,127.06z"/>
	</g>
	<g>
		<path class="st0" d="M618.67,137.28c-1.29-2.38-2.45-4.82-3.95-6.78c-0.75-0.97-1.6-1.79-2.49-2.32c-0.9-0.52-1.83-0.75-2.84-0.72
			c-2.02,0.03-4.26,1.06-6.37,2.31c-2.11,1.28-4.2,2.8-6.3,4.32c-4.19,3.06-8.5,6.28-11.91,10.33c-1.7,2.02-3.21,4.21-4.41,6.54
			c-1.23,2.3-2.09,4.82-2.38,7.25c-0.11,1.21-0.05,2.39,0.27,3.39c0.32,1,0.85,1.78,1.58,2.39c0.72,0.61,1.7,1.05,2.76,1.36
			l0.81,0.22l0.9,0.14l1.79,0.29c4.91,0.47,10.06-0.26,15.16-1.06c5.13-0.82,10.28-1.93,15.46-3.11l7.8-1.8
			c2.62-0.58,5.22-1.23,7.97-1.56c0.14-0.02,0.26,0.08,0.28,0.22c0.01,0.11-0.04,0.21-0.13,0.25l-0.03,0.02
			c-9.54,4.84-19.6,9.11-30.41,11.24c-2.7,0.51-5.46,0.87-8.26,0.97c-1.39,0.1-2.82-0.01-4.23-0.01c-0.7,0-1.43-0.14-2.14-0.2
			c-0.71-0.09-1.42-0.14-2.14-0.27l-2.14-0.5l-1.07-0.26c-0.37-0.12-0.73-0.27-1.1-0.4c-1.44-0.59-2.94-1.36-4.09-2.68
			c-1.18-1.27-1.93-2.96-2.11-4.58c-0.2-1.63,0.02-3.17,0.39-4.58c0.81-2.81,2.17-5.24,3.59-7.57c1.45-2.32,3.01-4.52,4.62-6.7
			c3.24-4.32,6.49-8.76,10.52-12.54c2.02-1.87,4.22-3.59,6.75-4.97c1.26-0.7,2.6-1.31,4.05-1.77c1.45-0.44,3.05-0.73,4.72-0.56
			c1.67,0.12,3.36,0.83,4.63,1.88c0.63,0.53,1.16,1.12,1.63,1.74c0.44,0.63,0.83,1.27,1.14,1.93c1.27,2.63,1.79,5.33,2.16,8.02
			c0.02,0.14-0.08,0.27-0.22,0.29C618.82,137.43,618.72,137.37,618.67,137.28z"/>
	</g>
	<g>
		<path class="st0" d="M562.75,105.2c0.55,0.99,0.65,1.8,0.57,2.53c-0.04,0.36-0.13,0.7-0.27,1.01c-0.13,0.32-0.34,0.59-0.66,0.78
			c-0.63,0.39-1.66,0.45-2.11,0.88c-0.46,0.42-0.51,1.09-0.17,1.66l0.5,0.81c0.14,0.24,0.21,0.49,0.3,0.75
			c0.18,0.51,0.4,1.05,0.37,1.63c-0.04,0.58-0.21,1.21-0.51,1.86c-0.33,0.66-0.7,1.34-1.46,2.09l-0.01,0.01
			c-0.13,0.13-0.33,0.15-0.48,0.06c-1.76-1.04-2.53-2.24-2.86-3.6c-0.07-0.34-0.07-0.68-0.01-1.05c0.05-0.36,0.13-0.72,0.24-1.11
			c0.1-0.37,0.2-0.76,0.43-1.15c0.2-0.37,0.55-0.74,0.86-1.06c0.69-0.64,1.23-1.1,1.44-1.76c0.22-0.64-0.08-1.62-0.03-2.3
			c0.05-0.69,0.53-1.06,1.05-1.46c0.56-0.36,1.22-0.69,2.37-0.82l0.01,0C562.5,104.96,562.67,105.05,562.75,105.2z"/>
	</g>
	<g>
		<path class="st0" d="M618.07,118.35c0.44-1.57,1.18-2.76,2.03-3.82c0.43-0.53,0.88-1.02,1.38-1.47c0.48-0.47,1.03-0.85,1.65-1.14
			c1.24-0.58,2.8-0.77,3.94-1.47c1.16-0.68,2.07-1.68,2.86-2.86c0.4-0.58,0.81-1.17,1.27-1.7c0.46-0.53,0.97-0.99,1.49-1.45
			c1.03-0.92,2.11-1.84,3.41-2.46c1.31-0.61,2.75-1.08,4.47-1.14c0.85-0.01,1.88,0.05,2.86,0.69c0.23,0.13,0.47,0.37,0.64,0.58
			c0.17,0.23,0.29,0.49,0.38,0.73c0.05,0.25,0.09,0.5,0.08,0.72c-0.03,0.22-0.08,0.44-0.13,0.63c-0.04,0.15-0.19,0.23-0.33,0.2
			c-0.04-0.01-0.08-0.03-0.11-0.06l-0.05-0.04c-0.14-0.13-0.29-0.23-0.41-0.32c-0.13-0.09-0.28-0.12-0.38-0.16
			c-0.13-0.01-0.23,0-0.31,0.02c-0.12,0.06-0.14,0.06-0.24,0.12l-1.06,0.74c-0.85,0.61-1.81,1.33-2.83,1.98
			c-1.02,0.66-2.19,1.16-3.36,1.71c-0.59,0.27-1.16,0.58-1.8,0.81c-0.63,0.24-1.3,0.42-1.97,0.62c-1.34,0.39-2.55,0.99-3.5,1.93
			c-0.96,0.93-1.49,2.38-2.32,3.45c-0.42,0.54-0.9,0.98-1.46,1.35c-0.54,0.38-1.11,0.73-1.72,1.03c-1.22,0.6-2.53,1.09-4.16,1.19
			c-0.17,0.01-0.31-0.12-0.32-0.29C618.06,118.42,618.06,118.38,618.07,118.35z"/>
	</g>
</g>
</svg>
